<?xml version="1.0" standalone="no"?>
<!DOCTYPE svg PUBLIC "-//W3C//DTD SVG 20010904//EN"
 "http://www.w3.org/TR/2001/REC-SVG-20010904/DTD/svg10.dtd">
<svg version="1.0" xmlns="http://www.w3.org/2000/svg"
 width="2542.000000pt" height="2512.000000pt" viewBox="0 0 2542.000000 2512.000000"
 preserveAspectRatio="xMidYMid meet">

<g transform="translate(0.000000,2512.000000) scale(0.100000,-0.100000)"
fill="#000000" stroke="none">
<path d="M2408 20191 c-84 -53 -112 -146 -126 -415 l-7 -140 -34 89 c-60 154
-126 215 -232 215 -44 0 -64 -6 -101 -29 -87 -55 -113 -167 -97 -413 9 -132
37 -377 45 -390 3 -4 -10 -27 -28 -52 -25 -36 -33 -59 -36 -105 -6 -78 17
-151 120 -396 44 -104 100 -253 124 -330 62 -199 91 -276 144 -392 55 -117 90
-171 172 -260 32 -36 60 -75 63 -87 3 -11 16 -129 30 -261 21 -196 30 -247 48
-279 26 -48 77 -84 128 -92 32 -5 44 -14 68 -53 41 -64 169 -186 326 -311 177
-141 270 -236 348 -355 160 -245 179 -318 227 -878 32 -375 70 -639 149 -1027
42 -212 60 -319 121 -718 22 -144 49 -290 61 -324 79 -236 246 -399 486 -477
155 -50 403 -84 793 -111 161 -10 277 -26 320 -42 14 -5 65 -18 115 -28 103
-20 237 -76 356 -147 69 -41 85 -55 106 -98 32 -63 72 -122 140 -207 29 -37
53 -69 53 -71 0 -2 -22 -18 -50 -35 -60 -37 -116 -119 -159 -231 -36 -95 -45
-151 -71 -420 -27 -282 -23 -274 -245 -531 -154 -178 -200 -242 -399 -545
-199 -304 -242 -385 -354 -675 -132 -341 -203 -469 -462 -825 -322 -443 -362
-503 -451 -690 -70 -147 -115 -287 -136 -419 -36 -240 -87 -502 -122 -641 -48
-187 -48 -183 -66 -395 -21 -253 -20 -448 4 -542 65 -254 293 -504 595 -655
43 -21 95 -58 132 -94 82 -81 318 -248 429 -304 146 -74 215 -87 455 -90 113
-1 215 -5 227 -9 56 -18 380 47 602 120 152 51 284 113 421 200 151 96 269
161 350 192 70 27 79 29 138 19 48 -8 79 -8 130 2 76 16 97 16 277 6 126 -7
133 -8 226 -51 146 -67 262 -86 407 -65 39 6 98 0 230 -21 340 -54 438 -67
582 -78 80 -6 224 -18 320 -27 193 -17 383 -13 555 12 55 8 141 15 192 15 110
0 270 20 454 57 134 26 135 26 654 29 402 2 549 6 650 18 184 23 264 21 356
-8 141 -46 269 -59 579 -60 l285 -2 59 -27 c84 -39 148 -56 256 -68 109 -13
107 -12 382 -182 175 -108 178 -110 248 -203 143 -188 266 -272 435 -298 50
-8 110 -21 135 -31 120 -44 301 -57 419 -30 174 41 266 144 350 391 37 108 40
184 15 351 -29 193 -87 341 -182 459 -63 78 -248 242 -348 310 -99 66 -207
117 -412 196 -100 37 -192 81 -253 119 -53 32 -127 73 -165 90 l-69 31 45 36
c81 64 263 253 425 442 88 102 216 251 285 331 69 80 209 249 312 375 102 126
201 244 220 263 45 47 107 85 283 174 158 81 234 137 286 213 38 56 69 144 69
198 0 33 9 53 45 101 69 92 89 152 90 265 0 87 -3 100 -32 161 -39 79 -120
160 -198 195 -35 16 -88 29 -147 36 -98 10 -399 67 -530 98 -50 12 -97 32
-130 55 -67 45 -163 75 -242 75 -39 0 -89 9 -137 25 l-76 26 -11 54 c-17 83
-60 162 -125 226 -103 104 -226 146 -397 135 -58 -3 -130 -12 -161 -20 l-57
-14 -58 49 c-33 26 -86 78 -119 115 l-59 67 29 21 c16 12 117 86 224 167 206
152 589 431 876 637 94 67 222 163 285 213 63 50 194 150 290 222 221 165 441
342 586 473 62 56 166 141 231 190 161 119 229 175 508 415 132 114 290 255
350 315 183 181 519 580 790 938 167 221 326 425 389 500 48 58 157 131 411
276 99 56 205 117 235 135 125 75 368 202 565 296 387 184 492 258 559 394 16
33 30 61 31 63 1 1 56 -24 121 -57 384 -192 729 -295 1144 -341 125 -14 470
-14 590 0 413 49 759 168 1060 364 445 291 735 736 817 1251 23 148 23 419 0
575 -92 603 -459 1207 -995 1637 -453 364 -983 597 -1584 695 -114 19 -174 22
-418 22 -291 1 -357 -4 -560 -45 -478 -96 -906 -331 -1192 -654 -322 -364
-489 -862 -449 -1341 38 -454 204 -874 501 -1269 l79 -104 -117 -113 c-204
-198 -511 -477 -727 -663 -115 -99 -274 -241 -353 -315 -79 -74 -154 -142
-166 -152 -11 -9 -77 -78 -146 -154 -69 -76 -206 -219 -306 -318 -195 -196
-300 -320 -424 -506 -153 -228 -273 -355 -525 -555 -46 -37 -48 -38 -31 -11
79 124 127 229 175 386 21 70 26 105 26 200 0 104 -3 121 -29 185 -71 170
-159 272 -374 434 -248 186 -445 301 -664 385 -167 64 -761 259 -932 305 -243
67 -479 116 -866 181 -486 82 -724 126 -845 156 -239 60 -850 243 -1165 349
-139 47 -201 55 -235 31 -18 -12 -34 -11 -126 13 l-105 26 14 35 c20 47 20
180 -1 256 -9 34 -48 136 -87 225 -39 90 -105 247 -147 349 -157 385 -210 476
-392 666 -64 66 -128 137 -144 157 -33 44 -104 94 -168 118 -26 10 -85 43
-131 72 -324 211 -1057 570 -1648 807 -576 231 -1154 364 -1615 372 -227 5
-1421 -21 -1530 -33 -138 -14 -268 -42 -346 -73 -36 -14 -81 -26 -101 -26
-111 0 -237 -51 -311 -126 -185 -187 -140 -499 92 -632 40 -22 65 -48 109
-113 67 -98 192 -225 288 -292 38 -27 129 -86 202 -132 73 -47 186 -124 250
-172 111 -83 313 -268 332 -303 14 -26 -49 -123 -166 -254 -155 -175 -204
-259 -223 -376 -36 -220 118 -429 345 -471 32 -6 79 -8 104 -5 l45 6 0 -112
c0 -77 4 -121 14 -137 15 -28 20 -28 -95 13 -43 15 -109 29 -170 35 l-99 9
-114 123 c-288 312 -386 389 -536 425 -38 9 -77 20 -85 24 -24 10 -82 129
-161 325 -177 438 -266 576 -431 666 -57 31 -71 34 -143 34 -96 0 -150 -25
-202 -93 -61 -80 -77 -153 -78 -352 l-1 -175 -74 1 c-59 1 -99 9 -185 39 -170
58 -348 131 -479 196 -136 67 -185 75 -246 38 l-35 -21 21 23 c21 23 22 34 28
458 4 354 8 437 20 450 12 13 15 112 20 571 4 305 9 584 12 619 5 53 4 63 -9
58 -20 -8 -26 144 -19 517 l5 293 -27 70 c-28 74 -79 133 -129 152 -55 21
-129 14 -179 -18z m3442 -1481 c0 -13 -30 -13 -50 0 -11 7 -7 10 18 10 17 0
32 -4 32 -10z m15375 -212 c55 -34 227 -184 395 -343 186 -176 370 -327 554
-455 197 -136 568 -431 620 -492 42 -48 43 -56 16 -91 -20 -25 -21 -25 -182
-27 -269 -4 -296 -5 -291 -12 4 -8 -156 -14 -289 -11 -64 1 -72 4 -155 56 -48
31 -97 64 -108 74 -11 10 -36 29 -55 43 -129 88 -221 170 -490 434 -254 249
-378 360 -501 448 -46 33 -86 63 -89 67 -3 4 -41 32 -85 61 -44 29 -90 64
-102 77 -46 49 -19 97 71 127 27 9 67 16 87 16 21 0 60 4 86 9 69 14 301 50
348 55 74 7 116 -2 170 -36z m-12545 -312 c47 -21 90 -42 95 -47 13 -14 -128
37 -187 67 -55 28 -76 52 -26 31 18 -8 71 -31 118 -51z m11811 -47 c57 -56
158 -142 224 -191 66 -50 122 -94 125 -98 3 -4 43 -33 88 -64 143 -98 207
-148 309 -240 96 -87 244 -208 313 -256 19 -13 80 -63 136 -110 56 -47 126
-104 157 -128 31 -24 62 -53 68 -65 10 -19 8 -18 -16 5 -18 18 -35 26 -49 23
-44 -9 -312 -43 -346 -43 -19 0 -118 -12 -220 -27 -101 -15 -196 -24 -210 -22
l-25 5 25 -17 c13 -9 36 -26 50 -39 14 -13 0 -6 -30 15 -30 22 -72 49 -92 61
-20 13 -38 26 -40 30 -2 4 -48 36 -102 72 -55 36 -104 70 -110 75 -6 6 -36 28
-66 49 -92 66 -263 223 -297 273 -68 101 -68 99 -69 413 -1 157 -4 294 -8 306
-9 28 28 74 58 74 16 0 57 -33 127 -101z m-216 -746 c11 -6 45 -40 75 -75 92
-106 142 -149 208 -181 47 -23 89 -56 158 -125 52 -51 91 -98 88 -104 -4 -6
-3 -9 2 -6 5 3 56 -39 114 -95 93 -89 93 -91 1 -12 -13 11 -33 30 -44 43 -47
52 -54 53 -194 33 -70 -10 -131 -17 -135 -14 -4 2 -88 -8 -187 -22 -99 -14
-183 -25 -186 -25 -3 0 -3 -5 0 -10 4 -6 12 -7 18 -4 7 4 9 4 6 1 -3 -4 35
-49 85 -100 76 -76 79 -80 16 -21 -128 120 -281 248 -370 307 -47 31 -94 63
-105 71 -11 7 -54 35 -95 62 -112 72 -179 124 -185 144 -3 10 0 29 6 44 14 31
27 33 204 40 109 4 149 10 244 38 97 28 124 32 185 28 39 -3 80 -11 91 -17z
m-16237 -293 c53 -38 172 -214 172 -255 0 -3 -13 -5 -29 -5 -24 0 -29 -5 -35
-32 -19 -94 -93 -158 -183 -158 l-48 0 1 193 c0 234 11 287 58 287 13 0 41
-13 64 -30z m17903 -176 c5 -15 8 -29 5 -31 -2 -2 -8 10 -14 26 -13 38 -5 41
9 5z m-735 -116 l29 -33 -35 30 c-19 17 -37 31 -39 33 -2 1 0 2 5 2 6 0 23
-15 40 -32z m104 -84 c0 -3 -13 4 -30 16 -16 12 -30 24 -30 26 0 3 14 -4 30
-16 17 -12 30 -24 30 -26z m-17698 -221 c83 -5 96 -8 91 -22 -24 -64 -94 -111
-167 -111 -44 0 -48 3 -154 108 l-109 109 121 -40 c95 -31 142 -40 218 -44z
m16803 67 c10 -11 16 -20 13 -20 -3 0 -13 9 -23 20 -10 11 -16 20 -13 20 3 0
13 -9 23 -20z m-10606 -530 c22 -11 48 -31 59 -45 20 -25 48 -94 40 -99 -1 -1
-102 -14 -223 -29 -121 -15 -348 -48 -504 -72 -790 -126 -1010 -133 -1696 -58
-319 35 -573 37 -722 5 -56 -12 -130 -31 -164 -42 -35 -10 -65 -17 -68 -14
-15 14 -3 107 22 170 27 70 58 109 107 135 43 22 478 30 1055 17 802 -16 1457
-3 1825 37 176 19 225 18 269 -5z m-6069 -111 c0 -6 -4 -7 -10 -4 -5 3 -10 11
-10 16 0 6 5 7 10 4 6 -3 10 -11 10 -16z m7233 -190 c58 -72 70 -99 98 -221
15 -67 24 -148 29 -288 6 -149 13 -213 29 -270 15 -52 23 -118 27 -215 4 -90
16 -194 34 -290 16 -82 32 -171 35 -197 7 -44 11 -49 52 -69 67 -32 98 -86 98
-168 -1 -60 -7 -80 -67 -211 -36 -80 -76 -173 -87 -207 -33 -97 -51 -227 -49
-353 2 -110 1 -118 -30 -187 -18 -39 -32 -85 -32 -102 0 -16 -4 -32 -9 -36
-14 -8 -41 -97 -51 -165 -6 -40 -4 -105 5 -193 8 -73 21 -225 29 -339 16 -211
44 -386 97 -608 71 -300 131 -451 271 -683 l59 -98 -16 -49 c-23 -68 -70 -126
-161 -197 -44 -33 -86 -69 -96 -79 -14 -17 -148 -295 -219 -454 -15 -34 -53
-86 -104 -140 -65 -68 -91 -106 -134 -193 -48 -97 -64 -119 -155 -210 -76 -77
-115 -126 -156 -197 -38 -65 -80 -119 -134 -173 -69 -68 -82 -88 -111 -162
-39 -99 -64 -137 -180 -270 -48 -55 -96 -120 -107 -145 -51 -115 -73 -152
-113 -189 -54 -50 -104 -75 -179 -91 -62 -13 -106 -11 -391 20 -106 11 -206
16 -265 13 -75 -4 -119 -1 -205 17 -149 31 -362 24 -512 -16 -87 -23 -110 -25
-208 -20 -93 5 -120 3 -173 -14 -64 -20 -156 -25 -202 -10 -15 5 3 6 43 2 49
-3 84 0 126 13 l59 17 6 247 c4 135 11 498 16 806 5 308 12 659 15 780 4 195
3 216 -9 185 -30 -73 -15 -7 19 87 43 117 162 321 213 363 20 16 57 37 82 45
56 18 206 35 323 35 74 0 95 4 139 26 l50 26 -6 51 c-16 121 -39 196 -102 335
-37 81 -91 206 -120 279 -68 170 -140 313 -202 405 -73 108 -126 197 -214 358
-44 80 -87 153 -96 163 -9 10 -50 42 -92 71 -41 29 -82 62 -90 72 -12 16 -11
16 10 -2 14 -11 49 -37 78 -57 l52 -37 0 38 c0 20 7 354 15 742 8 388 15 746
15 797 0 79 2 92 18 96 9 3 -13 5 -50 6 -65 1 -87 12 -52 25 9 3 43 7 77 7 34
1 50 4 35 6 l-28 4 0 188 0 188 43 11 42 11 -45 -6 c-25 -3 -88 -21 -140 -40
-52 -19 -128 -46 -169 -58 -40 -13 -84 -31 -97 -40 -22 -14 -24 -14 -30 11 -4
14 -29 59 -55 100 -54 82 -104 177 -172 330 -25 54 -84 178 -131 274 -47 96
-86 176 -86 177 0 2 17 3 37 3 20 0 118 10 217 23 111 13 226 21 296 20 805
-13 786 -14 1710 132 209 33 580 76 644 75 74 -1 548 47 634 65 40 8 98 25
130 39 31 13 62 24 67 24 6 0 32 -26 58 -59z m-7104 -803 c11 -58 15 -154 7
-145 -2 2 -9 42 -15 89 -7 47 -14 99 -17 115 -3 21 -2 26 5 15 5 -8 14 -42 20
-74z m7589 -46 c67 -32 122 -61 122 -64 0 -3 -46 -3 -101 -1 l-102 4 -24 43
c-14 24 -32 51 -40 61 -31 33 17 19 145 -43z m3022 -16 l35 -14 -35 6 c-40 7
-76 24 -50 23 8 0 31 -7 50 -15z m-10550 -364 c0 -13 -1 -13 -10 0 -5 8 -10
22 -10 30 0 13 1 13 10 0 5 -8 10 -22 10 -30z m11035 -550 c76 -11 175 -39
175 -49 0 -4 -25 -8 -56 -9 -30 -1 -80 -11 -110 -21 l-54 -20 -25 49 c-14 27
-25 52 -25 55 0 7 14 6 95 -5z m-3163 -1086 c102 -19 191 -34 197 -34 5 0 38
-25 72 -55 63 -54 227 -145 364 -201 39 -15 89 -45 112 -65 22 -21 63 -49 90
-62 32 -17 65 -46 96 -86 32 -40 108 -107 221 -195 265 -207 403 -285 644
-366 81 -27 188 -64 237 -81 75 -26 110 -32 213 -37 67 -3 122 -7 122 -10 0
-3 -17 -32 -38 -66 -21 -34 -69 -120 -105 -191 -37 -72 -87 -155 -110 -185
-55 -69 -263 -233 -511 -403 -408 -279 -462 -317 -483 -350 -13 -18 -23 -39
-23 -45 0 -7 -2 -12 -5 -12 -13 0 -173 46 -280 80 -66 21 -163 46 -215 56 -52
9 -122 30 -155 45 -33 16 -134 59 -225 97 -129 53 -167 73 -177 92 -6 14 -28
61 -48 105 -43 94 -176 341 -219 405 -16 25 -49 68 -72 95 -39 46 -46 64 -78
190 -74 294 -94 424 -122 775 -29 367 -29 383 -4 435 23 48 64 85 115 104 44
16 174 5 387 -35z m-4027 -154 c33 -33 57 -60 54 -60 -2 0 -31 27 -64 60 -33
33 -57 60 -54 60 2 0 31 -27 64 -60z m142 -2572 c-2 -13 -4 -3 -4 22 0 25 2
35 4 23 2 -13 2 -33 0 -45z m0 -95 c-2 -16 -4 -5 -4 22 0 28 2 40 4 28 2 -13
2 -35 0 -50z m4063 -216 l53 -23 -49 -29 c-27 -15 -52 -30 -56 -32 -5 -2 -8
21 -8 51 0 31 2 56 4 56 2 0 27 -10 56 -23z m-4043 -139 c-2 -18 -4 -6 -4 27
0 33 2 48 4 33 2 -15 2 -42 0 -60z m-28 -98 c-12 -22 -25 -38 -27 -35 -5 4 37
75 44 75 3 0 -5 -18 -17 -40z m-48 -67 c-5 -10 -29 -36 -52 -58 -42 -39 -42
-39 7 17 53 61 60 68 45 41z m-111 -106 c0 -2 -10 -12 -22 -23 l-23 -19 19 23
c18 21 26 27 26 19z"/>
<path d="M22721 17119 c-74 -13 -76 -19 -5 -19 36 1 67 6 78 15 20 15 20 15 0
14 -10 -1 -43 -5 -73 -10z"/>
<path d="M9404 15390 c-24 -9 -34 -51 -34 -143 0 -97 48 -165 133 -188 129
-34 242 73 235 223 l-3 63 -95 26 c-96 27 -196 35 -236 19z"/>
<path d="M7906 15307 c-22 -12 -53 -39 -70 -60 -42 -52 -48 -141 -14 -207 29
-56 91 -101 151 -107 141 -16 237 105 197 248 -35 124 -162 185 -264 126z"/>
<path d="M8692 15309 c-61 -31 -90 -79 -102 -170 -12 -96 -12 -185 0 -246 5
-26 12 -69 15 -95 l6 -48 185 0 186 0 -7 78 c-4 42 -11 96 -16 119 -5 23 -6
82 -2 132 5 84 4 94 -20 143 -48 98 -152 134 -245 87z"/>
<path d="M9253 14338 c-23 -13 -63 -36 -88 -52 -41 -25 -60 -30 -158 -37 -62
-4 -141 -14 -177 -21 -65 -14 -65 -14 -95 -70 l-29 -56 44 -47 c25 -25 66 -62
92 -81 26 -19 57 -51 69 -70 20 -33 24 -35 58 -29 20 4 74 11 121 15 108 11
200 40 270 85 30 19 60 35 66 35 7 0 23 19 36 42 13 23 39 52 58 65 59 38 63
43 57 83 -7 55 -35 107 -71 133 -25 18 -47 23 -121 25 -79 3 -95 0 -132 -20z"/>
<path d="M8360 9544 c0 -17 17 -36 24 -26 3 5 -1 15 -9 22 -8 7 -15 9 -15 4z"/>
<path d="M8180 8915 c-9 -11 -10 -19 -2 -27 14 -14 32 -1 32 23 0 23 -13 25
-30 4z"/>
<path d="M17546 17297 c-11 -64 -24 -378 -19 -414 5 -30 9 -33 40 -33 25 0 43
8 64 29 27 27 29 35 29 103 0 110 -61 329 -99 352 -4 3 -11 -13 -15 -37z"/>
</g>
</svg>
