<?xml version="1.0" standalone="no"?>
<!DOCTYPE svg PUBLIC "-//W3C//DTD SVG 20010904//EN"
 "http://www.w3.org/TR/2001/REC-SVG-20010904/DTD/svg10.dtd">
<svg version="1.0" xmlns="http://www.w3.org/2000/svg"
 width="500.000000pt" height="183.000000pt" viewBox="0 0 500.000000 183.000000"
 preserveAspectRatio="xMidYMid meet">

<g transform="translate(0.000000,183.000000) scale(0.100000,-0.100000)"
fill="#000000" stroke="none">
<path d="M247 1573 c-4 -3 -7 -16 -7 -27 -1 -19 -1 -20 -11 -3 -16 28 -29 10
-29 -43 0 -50 22 -122 47 -151 7 -8 13 -24 13 -35 0 -11 20 -40 44 -65 37 -38
45 -53 50 -100 27 -212 44 -249 115 -249 81 0 140 -35 120 -72 -5 -9 -9 -28
-9 -41 0 -13 -14 -42 -31 -63 -17 -22 -43 -64 -58 -95 -15 -30 -42 -76 -59
-102 -22 -31 -38 -72 -49 -127 -21 -98 -15 -115 61 -167 61 -42 110 -44 182
-7 l50 25 110 -13 c73 -9 130 -11 174 -5 74 9 248 1 288 -14 15 -6 38 -21 52
-33 37 -35 75 -41 100 -16 42 42 18 96 -61 136 l-50 25 67 74 c37 41 71 75 76
75 4 0 17 14 28 32 26 43 13 62 -53 77 -35 8 -62 21 -76 37 -14 17 -29 24 -41
21 -11 -3 -24 1 -29 7 -8 10 9 27 67 68 130 93 229 181 287 253 42 53 71 78
127 109 40 22 76 44 79 49 4 5 15 4 27 -2 72 -38 189 -31 249 15 45 34 63 73
63 137 0 126 -122 227 -274 227 -72 0 -128 -27 -163 -79 -31 -46 -32 -130 0
-186 l22 -40 -122 -121 c-110 -110 -121 -118 -116 -89 10 63 -68 106 -272 151
-207 45 -200 43 -213 88 -19 72 -51 108 -137 153 -129 69 -197 86 -324 81
-178 -6 -186 -35 -41 -147 l24 -19 -19 -37 -20 -37 30 -24 c27 -21 28 -24 9
-24 -11 0 -31 11 -44 25 -13 14 -29 25 -36 25 -7 0 -17 15 -24 34 -6 18 -20
42 -31 52 -20 18 -21 18 -35 -1 -8 -10 -14 -25 -14 -32 0 -16 0 -16 -46 5
l-39 17 3 115 c3 141 -4 180 -31 153z m1718 -153 c4 -6 33 -32 65 -59 l58 -49
-30 -6 c-21 -4 -37 -1 -53 12 -92 71 -123 101 -112 105 22 9 66 7 72 -3z m-5
-88 c52 -47 53 -50 25 -44 -28 5 -29 4 -15 -14 13 -17 13 -18 0 -8 -82 58
-100 77 -100 105 0 37 12 32 90 -39z m-55 -44 c22 -23 31 -35 19 -25 -23 19
-44 22 -44 6 0 -6 -14 1 -31 15 -17 14 -36 26 -42 27 -12 1 29 16 48 18 6 1
29 -18 50 -41z m-1503 -20 c-9 -9 -12 -7 -12 12 0 19 3 21 12 12 9 -9 9 -15 0
-24z m518 -67 c0 -12 -79 -21 -198 -21 -153 0 -117 19 43 23 72 1 136 4 143 5
6 1 12 -2 12 -7z m114 -43 c3 -13 6 -41 6 -63 0 -23 5 -46 11 -52 8 -8 8 -21
-2 -50 -19 -57 -17 -172 5 -220 l18 -40 -44 -64 c-24 -35 -59 -85 -78 -111
l-34 -48 -102 0 c-57 0 -105 4 -108 9 -3 4 6 6 19 3 23 -4 25 -2 25 38 0 43 0
43 -20 25 -17 -16 -20 -16 -15 -3 4 9 13 19 21 22 9 3 14 20 14 46 0 54 15 80
45 80 13 0 27 5 30 10 10 16 -39 114 -81 160 -35 39 -36 41 -10 25 l29 -19 -5
78 c-5 72 -4 78 16 87 16 7 12 8 -16 4 -35 -5 -38 -4 -57 33 l-20 39 102 7
c56 4 127 10 157 15 85 13 87 12 94 -11z m97 -251 c13 -7 43 -27 67 -44 24
-18 59 -37 78 -43 19 -6 34 -15 34 -19 0 -12 -49 -59 -86 -82 -29 -18 -38 -19
-73 -8 -29 9 -47 22 -62 47 -22 38 -44 136 -34 152 9 14 48 12 76 -3z"/>
<path d="M882 1134 c4 -21 22 -23 26 -1 2 10 -3 17 -13 17 -10 0 -15 -6 -13
-16z"/>
<path d="M742 1124 c4 -21 22 -23 26 -1 2 10 -3 17 -13 17 -10 0 -15 -6 -13
-16z"/>
<path d="M810 1116 c0 -26 14 -41 29 -32 13 8 0 56 -15 56 -8 0 -14 -10 -14
-24z"/>
<path d="M850 1051 c-30 -8 -33 -35 -5 -39 26 -4 60 21 51 36 -8 13 -10 13
-46 3z"/>
<path d="M2905 1363 l-39 -58 -12 30 c-7 17 -13 40 -14 53 0 25 -26 30 -52 10
-17 -15 -53 -223 -42 -251 8 -21 40 -22 48 -1 3 9 7 37 7 62 1 26 4 60 8 75
l6 28 18 -30 c24 -41 51 -39 82 6 l25 38 0 -61 c0 -82 16 -126 44 -122 20 3
21 7 17 103 -4 111 -18 168 -42 173 -10 2 -30 -19 -54 -55z"/>
<path d="M3490 1371 c0 -15 6 -21 21 -21 25 0 22 33 -4 38 -12 2 -17 -3 -17
-17z"/>
<path d="M3621 1343 c-23 -12 -40 -31 -53 -61 -24 -54 -18 -99 18 -133 35 -33
138 -34 181 -3 51 38 32 93 -20 60 -33 -21 -83 -29 -106 -16 -27 14 -28 63 -1
90 27 27 41 25 75 -10 22 -23 32 -27 46 -19 28 14 23 37 -15 75 -39 39 -72 43
-125 17z"/>
<path d="M3321 1337 c-31 -16 -58 -54 -66 -94 -5 -26 -2 -37 19 -58 29 -29 58
-32 100 -10 33 17 31 18 40 -11 4 -14 1 -28 -9 -38 -20 -20 -27 -20 -70 -2
-31 13 -36 13 -50 -1 -14 -14 -14 -17 1 -34 28 -31 87 -42 129 -25 47 20 62
53 48 109 -21 81 -44 132 -69 155 -29 25 -39 27 -73 9z m47 -79 c2 -19 -3 -30
-18 -38 -36 -19 -52 9 -29 51 14 28 43 20 47 -13z"/>
<path d="M3062 1333 c-23 -9 -42 -62 -42 -118 0 -47 4 -60 26 -82 21 -21 32
-24 61 -20 20 4 43 13 52 21 15 14 18 13 29 -4 14 -23 35 -26 51 -7 8 11 6 28
-9 72 -11 32 -20 66 -20 76 0 36 -104 80 -148 62z m70 -60 c10 -9 18 -27 18
-41 0 -27 -35 -72 -56 -72 -22 0 -32 76 -14 111 13 23 28 24 52 2z"/>
<path d="M3486 1279 c-3 -17 -6 -58 -6 -91 0 -44 4 -60 16 -65 8 -3 20 -1 25
4 16 16 23 137 10 161 -17 31 -37 27 -45 -9z"/>
<path d="M3943 1068 c-22 -10 -23 -17 -23 -113 0 -66 4 -107 13 -117 19 -24
98 -40 138 -27 85 28 106 110 37 145 -22 12 -27 19 -19 27 19 19 12 44 -20 71
-33 28 -85 34 -126 14z m104 -39 c16 -16 5 -37 -28 -54 -42 -22 -49 -19 -49
25 0 39 1 40 33 40 18 0 38 -5 44 -11z m49 -121 c10 -16 -33 -48 -65 -48 -15
0 -36 7 -47 15 -19 15 -19 15 0 30 23 18 102 20 112 3z"/>
<path d="M2505 1061 c-47 -6 -50 -8 -53 -36 -5 -37 26 -189 42 -211 11 -15 21
-15 87 -4 102 16 146 30 165 51 14 16 15 21 4 34 -8 9 -20 13 -29 9 -32 -13
-147 -43 -167 -44 -21 0 -34 17 -34 44 0 7 19 18 43 25 58 17 88 38 81 56 -8
19 -45 19 -91 0 -46 -19 -53 -19 -53 4 0 24 19 31 90 31 61 0 90 16 68 38 -12
12 -66 13 -153 3z"/>
<path d="M1794 1041 c-17 -4 -36 -11 -43 -15 -18 -12 6 -36 35 -36 23 0 24 -3
24 -61 0 -59 -1 -61 -24 -55 -15 4 -28 0 -37 -10 -24 -30 14 -44 117 -44 78 0
93 3 98 17 10 26 -22 45 -66 40 l-38 -5 0 64 0 64 54 0 c58 0 76 11 56 35 -13
16 -119 19 -176 6z"/>
<path d="M2050 1035 c-7 -8 -23 -15 -36 -15 -29 0 -28 6 -5 -88 11 -43 21 -90
23 -107 2 -24 8 -30 28 -30 l25 0 -3 91 c-2 58 0 94 7 98 13 9 48 -46 62 -99
18 -66 28 -85 43 -85 39 0 38 59 -5 155 -33 77 -107 119 -139 80z"/>
<path d="M3060 1036 c-6 -8 -24 -16 -38 -18 -18 -2 -26 -8 -23 -18 2 -8 12
-53 23 -100 27 -114 25 -110 47 -110 26 0 29 11 23 113 -3 59 -1 87 6 87 17 0
60 -81 68 -127 7 -47 23 -66 48 -57 35 14 0 146 -56 210 -33 37 -76 46 -98 20z"/>
<path d="M2280 1002 c0 -31 -5 -43 -25 -56 -25 -17 -25 -46 1 -46 9 0 14 -12
14 -34 0 -47 9 -66 30 -66 19 0 30 26 30 73 0 25 3 27 43 27 51 0 70 11 65 36
-3 16 -12 19 -55 19 l-51 -1 -9 40 c-5 26 -14 42 -26 44 -14 3 -17 -4 -17 -36z"/>
<path d="M3536 1024 c-3 -9 -6 -28 -6 -44 0 -20 -6 -31 -20 -35 -11 -3 -20
-13 -20 -22 0 -8 9 -17 20 -20 16 -4 20 -14 20 -48 0 -47 19 -72 38 -53 7 7
12 21 12 33 0 53 11 65 54 65 50 0 69 11 64 36 -3 16 -13 19 -58 19 -47 0 -55
3 -58 20 -7 50 -13 65 -26 65 -8 0 -17 -7 -20 -16z"/>
<path d="M4459 1028 c-1 -7 -3 -20 -4 -28 -1 -8 -3 -23 -4 -32 0 -9 -10 -20
-21 -23 -11 -3 -20 -13 -20 -22 0 -8 9 -17 20 -20 16 -4 20 -14 20 -48 0 -47
19 -72 38 -53 7 7 12 21 12 33 0 53 11 65 54 65 50 0 69 11 64 36 -3 16 -13
19 -58 19 -47 0 -55 3 -58 20 -7 51 -13 65 -27 65 -8 0 -16 -6 -16 -12z"/>
<path d="M4670 1007 c-30 -10 -35 -17 -35 -42 0 -26 7 -34 58 -60 31 -16 57
-35 57 -42 0 -17 -12 -16 -55 4 -64 30 -73 -18 -10 -57 39 -24 73 -26 103 -4
44 31 22 98 -46 134 l-37 19 33 -6 c27 -5 32 -3 32 15 0 38 -47 57 -100 39z"/>
<path d="M2796 997 c-26 -11 -28 -14 -23 -57 8 -66 23 -100 46 -100 19 0 31
34 31 87 0 23 3 25 38 20 20 -3 47 -8 59 -12 29 -9 48 24 29 51 -11 14 -29 19
-82 21 -38 1 -82 -3 -98 -10z"/>
<path d="M3304 996 c-85 -38 -84 -136 2 -172 51 -21 137 -18 159 6 32 35 14
48 -57 43 -45 -3 -68 -1 -82 10 -17 13 -14 14 38 20 63 6 86 19 86 48 0 41
-92 69 -146 45z"/>
<path d="M4224 996 c-85 -38 -84 -136 2 -172 43 -18 133 -18 157 1 10 7 17 22
15 32 -3 16 -12 18 -68 15 -45 -2 -71 1 -84 11 -17 13 -14 14 39 20 67 7 100
29 84 58 -20 39 -96 57 -145 35z"/>
<path d="M3862 759 c-26 -47 -103 -149 -113 -149 -13 0 -49 89 -49 122 0 35
-18 43 -65 28 -23 -8 -36 -19 -39 -33 -18 -90 -47 -274 -52 -328 -7 -76 5
-109 39 -109 36 0 47 19 47 79 0 69 20 223 30 235 5 4 11 -3 15 -15 4 -13 18
-39 32 -57 38 -50 67 -42 125 36 l48 63 0 -112 c0 -168 26 -228 87 -200 22 10
24 16 19 49 -4 20 -10 102 -15 182 -10 178 -29 240 -73 240 -11 0 -26 -13 -36
-31z"/>
<path d="M4462 713 c-18 -8 -35 -26 -38 -39 -3 -12 -4 -94 -2 -182 4 -192 4
-193 111 -211 39 -7 77 -15 84 -16 14 -5 99 25 131 45 30 19 62 80 62 118 0
38 -32 78 -76 94 -29 10 -34 16 -29 33 19 56 17 81 -9 112 -14 17 -41 38 -60
47 -43 20 -131 20 -174 -1z m147 -54 c44 -16 57 -43 32 -68 -29 -29 -64 -51
-100 -61 l-31 -9 0 75 0 74 34 0 c18 0 47 -5 65 -11z m107 -213 c15 -12 17
-18 8 -33 -16 -26 -63 -51 -109 -58 -56 -8 -108 23 -103 63 2 21 10 28 33 33
58 13 151 9 171 -5z"/>
<path d="M4095 663 c-72 -17 -95 -34 -75 -57 8 -11 29 -16 61 -16 l49 0 0
-106 0 -107 -44 5 c-53 6 -76 -5 -76 -37 0 -39 32 -48 193 -53 132 -4 150 -3
167 13 27 24 25 40 -7 65 -23 18 -38 21 -93 18 l-65 -3 -3 103 -3 102 69 0
c96 0 130 8 138 33 5 15 0 26 -16 39 -19 15 -40 18 -129 17 -58 -1 -133 -8
-166 -16z"/>
</g>
</svg>
